<svg width="22" height="23" viewBox="0 0 22 23" fill="none" xmlns="http://www.w3.org/2000/svg">
<circle cx="10.723" cy="5.45224" r="4.95224" stroke="white"/>
<mask id="path-2-inside-1_243_380" fill="white">
<path fill-rule="evenodd" clip-rule="evenodd" d="M20.1733 21.945C20.1733 16.6505 15.8813 12.3584 10.5867 12.3584C5.29214 12.3584 1.00006 16.6505 1.00006 21.945C1.00006 22.2212 0.776199 22.445 0.500057 22.445C0.223915 22.445 5.67456e-05 22.2212 5.67577e-05 21.945C5.70133e-05 16.0982 4.73986 11.3584 10.5867 11.3584C16.4335 11.3584 21.1733 16.0982 21.1733 21.945C21.1733 22.2212 20.9495 22.445 20.6733 22.445C20.3972 22.445 20.1733 22.2212 20.1733 21.945Z"/>
</mask>
<path d="M10.5867 13.3584C15.329 13.3584 19.1733 17.2028 19.1733 21.945L21.1733 21.945C21.1733 16.0982 16.4335 11.3584 10.5867 11.3584L10.5867 13.3584ZM2.00006 21.945C2.00006 17.2028 5.84443 13.3584 10.5867 13.3584L10.5867 11.3584C4.73986 11.3584 5.70133e-05 16.0982 5.67577e-05 21.945L2.00006 21.945ZM0.500057 23.445C1.32848 23.445 2.00006 22.7735 2.00006 21.945L5.67577e-05 21.945C5.67698e-05 21.6689 0.223915 21.445 0.500057 21.445L0.500057 23.445ZM-0.999943 21.945C-0.999943 22.7735 -0.32837 23.445 0.500057 23.445L0.500057 21.445C0.776199 21.445 1.00006 21.6689 1.00006 21.945L-0.999943 21.945ZM10.5867 10.3584C4.18757 10.3584 -0.999943 15.5459 -0.999943 21.945L1.00006 21.945C1.00006 16.6505 5.29214 12.3584 10.5867 12.3584L10.5867 10.3584ZM22.1733 21.945C22.1733 15.5459 16.9858 10.3584 10.5867 10.3584L10.5867 12.3584C15.8813 12.3584 20.1733 16.6505 20.1733 21.945L22.1733 21.945ZM20.6733 23.445C21.5018 23.445 22.1733 22.7735 22.1733 21.945L20.1733 21.945C20.1733 21.6689 20.3972 21.445 20.6733 21.445L20.6733 23.445ZM19.1733 21.945C19.1733 22.7735 19.8449 23.445 20.6733 23.445L20.6733 21.445C20.9495 21.445 21.1733 21.6689 21.1733 21.945L19.1733 21.945Z" fill="white" mask="url(#path-2-inside-1_243_380)"/>
</svg>
