<svg width="39" height="38" viewBox="0 0 39 38" fill="none" xmlns="http://www.w3.org/2000/svg">
<path d="M16.5 26.5L19 29L16.5 31.5L12.8158 28M16.5 26.5L14 24.5M16.5 26.5L19.5879 23.4975M11 21.5L9 19.5L6.5 22L9.6579 25M11 21.5L14 24.5M11 21.5L14.1282 18.5M12.8158 28L7.5 33V36.5H4L1 34V30.5H4L9.6579 25M12.8158 28L9.6579 25M33 5.5L14 24.5M19.5879 13L31.5 1H37V6.5L24.7073 18.5M19.5879 13L7.5 1H2V6.5L14.1282 18.5M19.5879 13L16.5 16M14.1282 18.5L16.5 16M6 5.5L16.5 16M24.7073 18.5L27.5 21.5M24.7073 18.5L22.1476 20.9988M27.5 21.5L30 19.5L33 22L29.5 25.5L34.5 30.5H38V34L35 37H31.5V34L26.5 28.5L23.5 31.5L20.5 29L22.5 26.5M27.5 21.5L25 24M22.5 26.5L19.5879 23.4975M22.5 26.5L25 24M19.5879 23.4975L22.1476 20.9988M22.1476 20.9988L25 24" stroke="white"/>
</svg>
