<svg width="29" height="28" viewBox="0 0 29 28" fill="none" xmlns="http://www.w3.org/2000/svg">
<path d="M13.0324 17.8173L12.0676 13.3147C12.0238 13.1104 11.9171 12.9249 11.7625 12.7843L8.25441 9.59518C7.5998 9.00009 7.98353 7.91059 8.86658 7.85707L20.8778 7.12912C21.7226 7.07792 22.245 8.03395 21.7456 8.71731L14.8176 18.1978C14.308 18.8952 13.2134 18.6619 13.0324 17.8173Z" stroke="white"/>
<path d="M14.7573 11.9287C14.9941 11.7866 15.0708 11.4794 14.9287 11.2427C14.7866 11.0059 14.4794 10.9292 14.2427 11.0713L14.7573 11.9287ZM12.2576 13.4292L14.7573 11.9287L14.2427 11.0713L11.7429 12.5718L12.2576 13.4292Z" fill="white"/>
</svg>
