<svg width="25" height="27" viewBox="0 0 25 27" fill="none" xmlns="http://www.w3.org/2000/svg">
<path d="M17.1 12.58H23.8V14.18H17.1V12.58Z" fill="white"/>
<circle cx="10.723" cy="8.45224" r="4.95224" stroke="white"/>
<mask id="path-3-inside-1_924_7" fill="white">
<path fill-rule="evenodd" clip-rule="evenodd" d="M20.1733 24.9453C20.1733 19.6507 15.8813 15.3586 10.5867 15.3586C5.29214 15.3586 1.00006 19.6507 1.00006 24.9453C1.00006 25.2214 0.776199 25.4453 0.500057 25.4453C0.223915 25.4453 5.67456e-05 25.2214 5.67577e-05 24.9453C5.70133e-05 19.0984 4.73986 14.3586 10.5867 14.3586C16.4335 14.3586 21.1733 19.0984 21.1733 24.9453C21.1733 25.2214 20.9495 25.4453 20.6733 25.4453C20.3972 25.4453 20.1733 25.2214 20.1733 24.9453Z"/>
</mask>
<path d="M10.5867 16.3586C15.329 16.3586 19.1733 20.203 19.1733 24.9453L21.1733 24.9453C21.1733 19.0984 16.4335 14.3586 10.5867 14.3586L10.5867 16.3586ZM2.00006 24.9453C2.00006 20.203 5.84443 16.3586 10.5867 16.3586L10.5867 14.3586C4.73986 14.3586 5.70133e-05 19.0984 5.67577e-05 24.9453L2.00006 24.9453ZM0.500057 26.4453C1.32848 26.4453 2.00006 25.7737 2.00006 24.9453L5.67577e-05 24.9453C5.67698e-05 24.6691 0.223915 24.4453 0.500057 24.4453L0.500057 26.4453ZM-0.999943 24.9453C-0.999943 25.7737 -0.32837 26.4453 0.500057 26.4453L0.500057 24.4453C0.776199 24.4453 1.00006 24.6691 1.00006 24.9453L-0.999943 24.9453ZM10.5867 13.3586C4.18757 13.3586 -0.999943 18.5462 -0.999943 24.9453L1.00006 24.9453C1.00006 19.6507 5.29214 15.3586 10.5867 15.3586L10.5867 13.3586ZM22.1733 24.9453C22.1733 18.5462 16.9858 13.3586 10.5867 13.3586L10.5867 15.3586C15.8813 15.3586 20.1733 19.6507 20.1733 24.9453L22.1733 24.9453ZM20.6733 26.4453C21.5018 26.4453 22.1733 25.7737 22.1733 24.9453L20.1733 24.9453C20.1733 24.6691 20.3972 24.4453 20.6733 24.4453L20.6733 26.4453ZM19.1733 24.9453C19.1733 25.7737 19.8449 26.4453 20.6733 26.4453L20.6733 24.4453C20.9495 24.4453 21.1733 24.6691 21.1733 24.9453L19.1733 24.9453Z" fill="white" mask="url(#path-3-inside-1_924_7)"/>
</svg>
