<svg width="22" height="23" viewBox="0 0 22 23" fill="none" xmlns="http://www.w3.org/2000/svg">
<circle cx="10.723" cy="5.45224" r="4.95224" stroke="white"/>
<mask id="path-2-inside-1_139_132" fill="white">
<path fill-rule="evenodd" clip-rule="evenodd" d="M20.1733 21.9453C20.1733 16.6507 15.8813 12.3586 10.5867 12.3586C5.29214 12.3586 1.00006 16.6507 1.00006 21.9453C1.00006 22.2214 0.776199 22.4453 0.500057 22.4453C0.223915 22.4453 5.67456e-05 22.2214 5.67577e-05 21.9453C5.70133e-05 16.0984 4.73986 11.3586 10.5867 11.3586C16.4335 11.3586 21.1733 16.0984 21.1733 21.9453C21.1733 22.2214 20.9495 22.4453 20.6733 22.4453C20.3972 22.4453 20.1733 22.2214 20.1733 21.9453Z"/>
</mask>
<path d="M10.5867 13.3586C15.329 13.3586 19.1733 17.203 19.1733 21.9453L21.1733 21.9453C21.1733 16.0984 16.4335 11.3586 10.5867 11.3586L10.5867 13.3586ZM2.00006 21.9453C2.00006 17.203 5.84443 13.3586 10.5867 13.3586L10.5867 11.3586C4.73986 11.3586 5.70133e-05 16.0984 5.67577e-05 21.9453L2.00006 21.9453ZM0.500057 23.4453C1.32848 23.4453 2.00006 22.7737 2.00006 21.9453L5.67577e-05 21.9453C5.67698e-05 21.6691 0.223915 21.4453 0.500057 21.4453L0.500057 23.4453ZM-0.999943 21.9453C-0.999943 22.7737 -0.32837 23.4453 0.500057 23.4453L0.500057 21.4453C0.776199 21.4453 1.00006 21.6691 1.00006 21.9453L-0.999943 21.9453ZM10.5867 10.3586C4.18757 10.3586 -0.999943 15.5462 -0.999943 21.9453L1.00006 21.9453C1.00006 16.6507 5.29214 12.3586 10.5867 12.3586L10.5867 10.3586ZM22.1733 21.9453C22.1733 15.5462 16.9858 10.3586 10.5867 10.3586L10.5867 12.3586C15.8813 12.3586 20.1733 16.6507 20.1733 21.9453L22.1733 21.9453ZM20.6733 23.4453C21.5018 23.4453 22.1733 22.7737 22.1733 21.9453L20.1733 21.9453C20.1733 21.6691 20.3972 21.4453 20.6733 21.4453L20.6733 23.4453ZM19.1733 21.9453C19.1733 22.7737 19.8449 23.4453 20.6733 23.4453L20.6733 21.4453C20.9495 21.4453 21.1733 21.6691 21.1733 21.9453L19.1733 21.9453Z" fill="white" mask="url(#path-2-inside-1_139_132)"/>
</svg>
